<svg width="128" height="128" viewBox="0 0 128 128" fill="none" xmlns="http://www.w3.org/2000/svg">
  <rect x="14" y="14" width="100" height="100" rx="24" fill="#1F2937"/>
  <rect x="24" y="28" width="80" height="72" rx="14" fill="#111827"/>
  <path d="M38 46H72C78.6274 46 84 51.3726 84 58C84 64.6274 78.6274 70 72 70H38V46Z" fill="#F9FAFB"/>
  <path d="M38 70H76C82.6274 70 88 75.3726 88 82C88 88.6274 82.6274 94 76 94H38V70Z" fill="#F9FAFB"/>
  <path d="M52 56H70C71.6569 56 73 57.3431 73 59C73 60.6569 71.6569 62 70 62H52V56Z" fill="#1F2937"/>
  <path d="M52 78H74C75.6569 78 77 79.3431 77 81C77 82.6569 75.6569 84 74 84H52V78Z" fill="#1F2937"/>
  <path d="M30 104L96 104" stroke="#FBBF24" stroke-width="8" stroke-linecap="round"/>
  <path d="M92 31L101 22" stroke="#FBBF24" stroke-width="6" stroke-linecap="round"/>
  <path d="M101 31L92 22" stroke="#FBBF24" stroke-width="6" stroke-linecap="round"/>
</svg>